<svg width="233" height="147" viewBox="0 0 233 147" fill="none" xmlns="http://www.w3.org/2000/svg">
<path d="M2.928 121V104.2H8.952C10.36 104.2 11.568 104.424 12.576 104.872C13.584 105.32 14.36 105.968 14.904 106.816C15.448 107.648 15.72 108.664 15.72 109.864C15.72 111.032 15.448 112.04 14.904 112.888C14.36 113.736 13.584 114.384 12.576 114.832C11.568 115.28 10.36 115.504 8.952 115.504H3.6L4.152 114.928V121H2.928ZM4.152 115L3.6 114.4H8.952C10.76 114.4 12.128 114.008 13.056 113.224C14 112.424 14.472 111.304 14.472 109.864C14.472 108.408 14 107.288 13.056 106.504C12.128 105.704 10.76 105.304 8.952 105.304H3.6L4.152 104.704V115ZM26.3299 121V104.2H27.5539V121H26.3299ZM39.888 121V104.2H40.92L52.896 119.488H52.344V104.2H53.568V121H52.56L40.56 105.712H41.112V121H39.888ZM66.9949 111.928H76.0909V113.008H66.9949V111.928ZM67.1389 119.896H77.5069V121H65.9149V104.2H77.1469V105.304H67.1389V119.896ZM92.1986 121V114.904L92.4866 115.696L85.4306 104.2H86.7746L93.1826 114.64H92.5106L98.9186 104.2H100.191L93.1346 115.696L93.4226 114.904V121H92.1986ZM113.064 121L107.352 104.2H108.648L114.072 120.256H113.424L119.016 104.2H120.192L125.736 120.256H125.112L130.584 104.2H131.784L126.096 121H124.8L119.424 105.472H119.736L114.36 121H113.064ZM148.78 121.12C147.532 121.12 146.372 120.912 145.3 120.496C144.244 120.064 143.316 119.464 142.516 118.696C141.732 117.912 141.124 117.008 140.692 115.984C140.26 114.944 140.044 113.816 140.044 112.6C140.044 111.384 140.26 110.264 140.692 109.24C141.124 108.2 141.732 107.296 142.516 106.528C143.316 105.744 144.244 105.144 145.3 104.728C146.372 104.296 147.532 104.08 148.78 104.08C150.028 104.08 151.18 104.296 152.236 104.728C153.308 105.144 154.236 105.736 155.02 106.504C155.804 107.272 156.412 108.176 156.844 109.216C157.292 110.24 157.516 111.368 157.516 112.6C157.516 113.832 157.292 114.968 156.844 116.008C156.412 117.032 155.804 117.928 155.02 118.696C154.236 119.464 153.308 120.064 152.236 120.496C151.18 120.912 150.028 121.12 148.78 121.12ZM148.78 119.992C149.852 119.992 150.844 119.808 151.756 119.44C152.668 119.072 153.46 118.552 154.132 117.88C154.804 117.208 155.324 116.424 155.692 115.528C156.076 114.632 156.268 113.656 156.268 112.6C156.268 111.528 156.076 110.552 155.692 109.672C155.324 108.776 154.804 107.992 154.132 107.32C153.46 106.648 152.668 106.128 151.756 105.76C150.844 105.392 149.852 105.208 148.78 105.208C147.708 105.208 146.716 105.392 145.804 105.76C144.892 106.128 144.092 106.648 143.404 107.32C142.732 107.992 142.204 108.776 141.82 109.672C141.452 110.552 141.268 111.528 141.268 112.6C141.268 113.656 141.452 114.632 141.82 115.528C142.204 116.424 142.732 117.208 143.404 117.88C144.092 118.552 144.892 119.072 145.804 119.44C146.716 119.808 147.708 119.992 148.78 119.992ZM175.369 121.12C174.121 121.12 172.961 120.912 171.889 120.496C170.833 120.064 169.905 119.464 169.105 118.696C168.321 117.912 167.713 117.008 167.281 115.984C166.849 114.944 166.633 113.816 166.633 112.6C166.633 111.384 166.849 110.264 167.281 109.24C167.713 108.2 168.321 107.296 169.105 106.528C169.905 105.744 170.833 105.144 171.889 104.728C172.961 104.296 174.121 104.08 175.369 104.08C176.617 104.08 177.769 104.296 178.825 104.728C179.897 105.144 180.825 105.736 181.609 106.504C182.393 107.272 183.001 108.176 183.433 109.216C183.881 110.24 184.105 111.368 184.105 112.6C184.105 113.832 183.881 114.968 183.433 116.008C183.001 117.032 182.393 117.928 181.609 118.696C180.825 119.464 179.897 120.064 178.825 120.496C177.769 120.912 176.617 121.12 175.369 121.12ZM175.369 119.992C176.441 119.992 177.433 119.808 178.345 119.44C179.257 119.072 180.049 118.552 180.721 117.88C181.393 117.208 181.913 116.424 182.281 115.528C182.665 114.632 182.857 113.656 182.857 112.6C182.857 111.528 182.665 110.552 182.281 109.672C181.913 108.776 181.393 107.992 180.721 107.32C180.049 106.648 179.257 106.128 178.345 105.76C177.433 105.392 176.441 105.208 175.369 105.208C174.297 105.208 173.305 105.392 172.393 105.76C171.481 106.128 170.681 106.648 169.993 107.32C169.321 107.992 168.793 108.776 168.409 109.672C168.041 110.552 167.857 111.528 167.857 112.6C167.857 113.656 168.041 114.632 168.409 115.528C168.793 116.424 169.321 117.208 169.993 117.88C170.681 118.552 171.481 119.072 172.393 119.44C173.305 119.808 174.297 119.992 175.369 119.992ZM194.83 121V104.2H201.478C203.254 104.2 204.814 104.56 206.158 105.28C207.502 106 208.542 106.992 209.278 108.256C210.03 109.52 210.406 110.968 210.406 112.6C210.406 114.232 210.03 115.68 209.278 116.944C208.542 118.208 207.502 119.2 206.158 119.92C204.814 120.64 203.254 121 201.478 121H194.83ZM196.054 119.896H201.382C202.966 119.896 204.342 119.584 205.51 118.96C206.678 118.336 207.582 117.48 208.222 116.392C208.862 115.288 209.182 114.024 209.182 112.6C209.182 111.176 208.862 109.92 208.222 108.832C207.582 107.728 206.678 106.864 205.51 106.24C204.342 105.616 202.966 105.304 201.382 105.304H196.054V119.896ZM225.555 121.12C224.307 121.12 223.123 120.912 222.003 120.496C220.899 120.064 220.043 119.512 219.435 118.84L219.987 117.928C220.563 118.52 221.347 119.024 222.339 119.44C223.347 119.84 224.411 120.04 225.531 120.04C226.651 120.04 227.563 119.896 228.267 119.608C228.987 119.304 229.515 118.904 229.851 118.408C230.203 117.912 230.379 117.36 230.379 116.752C230.379 116.032 230.187 115.456 229.803 115.024C229.419 114.592 228.915 114.248 228.291 113.992C227.667 113.736 226.987 113.52 226.251 113.344C225.515 113.168 224.771 112.984 224.019 112.792C223.267 112.584 222.579 112.32 221.955 112C221.331 111.68 220.827 111.248 220.443 110.704C220.075 110.144 219.891 109.424 219.891 108.544C219.891 107.744 220.099 107.008 220.515 106.336C220.931 105.664 221.579 105.12 222.459 104.704C223.339 104.288 224.467 104.08 225.843 104.08C226.771 104.08 227.683 104.216 228.579 104.488C229.491 104.76 230.267 105.128 230.907 105.592L230.451 106.576C229.747 106.096 228.987 105.744 228.171 105.52C227.371 105.28 226.595 105.16 225.843 105.16C224.771 105.16 223.883 105.312 223.179 105.616C222.475 105.92 221.955 106.328 221.619 106.84C221.283 107.336 221.115 107.896 221.115 108.52C221.115 109.24 221.299 109.816 221.667 110.248C222.051 110.68 222.555 111.024 223.179 111.28C223.803 111.536 224.491 111.752 225.243 111.928C225.995 112.104 226.739 112.296 227.475 112.504C228.211 112.696 228.891 112.952 229.515 113.272C230.139 113.592 230.643 114.024 231.027 114.568C231.411 115.112 231.603 115.816 231.603 116.68C231.603 117.464 231.387 118.2 230.955 118.888C230.523 119.56 229.859 120.104 228.963 120.52C228.083 120.92 226.947 121.12 225.555 121.12Z" fill="#010A16"/>
<path d="M43.504 143V131.8H48.112C49.104 131.8 49.952 131.96 50.656 132.28C51.3707 132.6 51.92 133.059 52.304 133.656C52.688 134.253 52.88 134.963 52.88 135.784C52.88 136.605 52.688 137.315 52.304 137.912C51.92 138.509 51.3707 138.968 50.656 139.288C49.952 139.608 49.104 139.768 48.112 139.768H44.656L45.584 138.792V143H43.504ZM45.584 139.016L44.656 138.008H48.016C48.9333 138.008 49.6213 137.816 50.08 137.432C50.5493 137.037 50.784 136.488 50.784 135.784C50.784 135.069 50.5493 134.52 50.08 134.136C49.6213 133.752 48.9333 133.56 48.016 133.56H44.656L45.584 132.536V139.016ZM58.5739 143.112C57.6992 143.112 56.9205 142.925 56.2379 142.552C55.5552 142.168 55.0165 141.645 54.6219 140.984C54.2272 140.323 54.0299 139.571 54.0299 138.728C54.0299 137.875 54.2272 137.123 54.6219 136.472C55.0165 135.811 55.5552 135.293 56.2379 134.92C56.9205 134.547 57.6992 134.36 58.5739 134.36C59.4592 134.36 60.2432 134.547 60.9259 134.92C61.6192 135.293 62.1579 135.805 62.5419 136.456C62.9365 137.107 63.1339 137.864 63.1339 138.728C63.1339 139.571 62.9365 140.323 62.5419 140.984C62.1579 141.645 61.6192 142.168 60.9259 142.552C60.2432 142.925 59.4592 143.112 58.5739 143.112ZM58.5739 141.4C59.0645 141.4 59.5019 141.293 59.8859 141.08C60.2699 140.867 60.5685 140.557 60.7819 140.152C61.0059 139.747 61.1179 139.272 61.1179 138.728C61.1179 138.173 61.0059 137.699 60.7819 137.304C60.5685 136.899 60.2699 136.589 59.8859 136.376C59.5019 136.163 59.0699 136.056 58.5899 136.056C58.0992 136.056 57.6619 136.163 57.2779 136.376C56.9045 136.589 56.6059 136.899 56.3819 137.304C56.1579 137.699 56.0459 138.173 56.0459 138.728C56.0459 139.272 56.1579 139.747 56.3819 140.152C56.6059 140.557 56.9045 140.867 57.2779 141.08C57.6619 141.293 58.0939 141.4 58.5739 141.4ZM68.8864 143.112C68.0117 143.112 67.233 142.925 66.5504 142.552C65.8677 142.168 65.329 141.645 64.9344 140.984C64.5397 140.323 64.3424 139.571 64.3424 138.728C64.3424 137.875 64.5397 137.123 64.9344 136.472C65.329 135.811 65.8677 135.293 66.5504 134.92C67.233 134.547 68.0117 134.36 68.8864 134.36C69.7717 134.36 70.5557 134.547 71.2384 134.92C71.9317 135.293 72.4704 135.805 72.8544 136.456C73.249 137.107 73.4464 137.864 73.4464 138.728C73.4464 139.571 73.249 140.323 72.8544 140.984C72.4704 141.645 71.9317 142.168 71.2384 142.552C70.5557 142.925 69.7717 143.112 68.8864 143.112ZM68.8864 141.4C69.377 141.4 69.8144 141.293 70.1984 141.08C70.5824 140.867 70.881 140.557 71.0944 140.152C71.3184 139.747 71.4304 139.272 71.4304 138.728C71.4304 138.173 71.3184 137.699 71.0944 137.304C70.881 136.899 70.5824 136.589 70.1984 136.376C69.8144 136.163 69.3824 136.056 68.9024 136.056C68.4117 136.056 67.9744 136.163 67.5904 136.376C67.217 136.589 66.9184 136.899 66.6944 137.304C66.4704 137.699 66.3584 138.173 66.3584 138.728C66.3584 139.272 66.4704 139.747 66.6944 140.152C66.9184 140.557 67.217 140.867 67.5904 141.08C67.9744 141.293 68.4064 141.4 68.8864 141.4ZM75.3589 143V131.128H77.3589V143H75.3589ZM89.1418 143.112C88.4484 143.112 87.8138 142.952 87.2378 142.632C86.6724 142.312 86.2191 141.832 85.8778 141.192C85.5471 140.541 85.3818 139.72 85.3818 138.728C85.3818 137.725 85.5418 136.904 85.8618 136.264C86.1924 135.624 86.6404 135.149 87.2057 134.84C87.7711 134.52 88.4164 134.36 89.1418 134.36C89.9844 134.36 90.7258 134.541 91.3658 134.904C92.0164 135.267 92.5284 135.773 92.9018 136.424C93.2858 137.075 93.4778 137.843 93.4778 138.728C93.4778 139.613 93.2858 140.387 92.9018 141.048C92.5284 141.699 92.0164 142.205 91.3658 142.568C90.7258 142.931 89.9844 143.112 89.1418 143.112ZM84.4058 146.104V134.456H86.3098V136.472L86.2458 138.744L86.4058 141.016V146.104H84.4058ZM88.9178 141.4C89.3978 141.4 89.8244 141.293 90.1978 141.08C90.5818 140.867 90.8858 140.557 91.1098 140.152C91.3338 139.747 91.4458 139.272 91.4458 138.728C91.4458 138.173 91.3338 137.699 91.1098 137.304C90.8858 136.899 90.5818 136.589 90.1978 136.376C89.8244 136.163 89.3978 136.056 88.9178 136.056C88.4378 136.056 88.0058 136.163 87.6218 136.376C87.2378 136.589 86.9338 136.899 86.7098 137.304C86.4858 137.699 86.3738 138.173 86.3738 138.728C86.3738 139.272 86.4858 139.747 86.7098 140.152C86.9338 140.557 87.2378 140.867 87.6218 141.08C88.0058 141.293 88.4378 141.4 88.9178 141.4ZM95.3745 143V134.456H97.2785V136.808L97.0545 136.12C97.3105 135.544 97.7105 135.107 98.2545 134.808C98.8092 134.509 99.4972 134.36 100.319 134.36V136.264C100.233 136.243 100.153 136.232 100.079 136.232C100.004 136.221 99.9292 136.216 99.8545 136.216C99.0972 136.216 98.4945 136.44 98.0465 136.888C97.5985 137.325 97.3745 137.981 97.3745 138.856V143H95.3745ZM105.777 143.112C104.902 143.112 104.124 142.925 103.441 142.552C102.758 142.168 102.22 141.645 101.825 140.984C101.43 140.323 101.233 139.571 101.233 138.728C101.233 137.875 101.43 137.123 101.825 136.472C102.22 135.811 102.758 135.293 103.441 134.92C104.124 134.547 104.902 134.36 105.777 134.36C106.662 134.36 107.446 134.547 108.129 134.92C108.822 135.293 109.361 135.805 109.745 136.456C110.14 137.107 110.337 137.864 110.337 138.728C110.337 139.571 110.14 140.323 109.745 140.984C109.361 141.645 108.822 142.168 108.129 142.552C107.446 142.925 106.662 143.112 105.777 143.112ZM105.777 141.4C106.268 141.4 106.705 141.293 107.089 141.08C107.473 140.867 107.772 140.557 107.985 140.152C108.209 139.747 108.321 139.272 108.321 138.728C108.321 138.173 108.209 137.699 107.985 137.304C107.772 136.899 107.473 136.589 107.089 136.376C106.705 136.163 106.273 136.056 105.793 136.056C105.302 136.056 104.865 136.163 104.481 136.376C104.108 136.589 103.809 136.899 103.585 137.304C103.361 137.699 103.249 138.173 103.249 138.728C103.249 139.272 103.361 139.747 103.585 140.152C103.809 140.557 104.108 140.867 104.481 141.08C104.865 141.293 105.297 141.4 105.777 141.4ZM112.522 143V133.976C112.522 133.08 112.783 132.365 113.306 131.832C113.839 131.288 114.596 131.016 115.578 131.016C115.93 131.016 116.26 131.053 116.57 131.128C116.89 131.203 117.156 131.32 117.37 131.48L116.826 132.984C116.676 132.867 116.506 132.781 116.314 132.728C116.122 132.664 115.924 132.632 115.722 132.632C115.306 132.632 114.991 132.749 114.778 132.984C114.564 133.208 114.458 133.549 114.458 134.008V134.968L114.522 135.864V143H112.522ZM111.114 136.12V134.52H116.81V136.12H111.114ZM122.047 143.112C121.097 143.112 120.265 142.925 119.551 142.552C118.847 142.168 118.297 141.645 117.903 140.984C117.519 140.323 117.327 139.571 117.327 138.728C117.327 137.875 117.513 137.123 117.887 136.472C118.271 135.811 118.793 135.293 119.455 134.92C120.127 134.547 120.889 134.36 121.743 134.36C122.575 134.36 123.316 134.541 123.967 134.904C124.617 135.267 125.129 135.779 125.503 136.44C125.876 137.101 126.063 137.88 126.063 138.776C126.063 138.861 126.057 138.957 126.047 139.064C126.047 139.171 126.041 139.272 126.031 139.368H118.911V138.04H124.975L124.191 138.456C124.201 137.965 124.1 137.533 123.887 137.16C123.673 136.787 123.38 136.493 123.007 136.28C122.644 136.067 122.223 135.96 121.743 135.96C121.252 135.96 120.82 136.067 120.447 136.28C120.084 136.493 119.796 136.792 119.583 137.176C119.38 137.549 119.279 137.992 119.279 138.504V138.824C119.279 139.336 119.396 139.789 119.631 140.184C119.865 140.579 120.196 140.883 120.623 141.096C121.049 141.309 121.54 141.416 122.095 141.416C122.575 141.416 123.007 141.341 123.391 141.192C123.775 141.043 124.116 140.808 124.415 140.488L125.487 141.72C125.103 142.168 124.617 142.515 124.031 142.76C123.455 142.995 122.793 143.112 122.047 143.112ZM130.624 143.112C129.909 143.112 129.221 143.021 128.56 142.84C127.909 142.648 127.392 142.419 127.008 142.152L127.776 140.632C128.16 140.877 128.619 141.08 129.152 141.24C129.685 141.4 130.219 141.48 130.752 141.48C131.381 141.48 131.835 141.395 132.112 141.224C132.4 141.053 132.544 140.824 132.544 140.536C132.544 140.301 132.448 140.125 132.256 140.008C132.064 139.88 131.813 139.784 131.504 139.72C131.195 139.656 130.848 139.597 130.464 139.544C130.091 139.491 129.712 139.421 129.328 139.336C128.955 139.24 128.613 139.107 128.304 138.936C127.995 138.755 127.744 138.515 127.552 138.216C127.36 137.917 127.264 137.523 127.264 137.032C127.264 136.488 127.419 136.019 127.728 135.624C128.037 135.219 128.469 134.909 129.024 134.696C129.589 134.472 130.256 134.36 131.024 134.36C131.6 134.36 132.181 134.424 132.768 134.552C133.355 134.68 133.84 134.861 134.224 135.096L133.456 136.616C133.051 136.371 132.64 136.205 132.224 136.12C131.819 136.024 131.413 135.976 131.008 135.976C130.4 135.976 129.947 136.067 129.648 136.248C129.36 136.429 129.216 136.659 129.216 136.936C129.216 137.192 129.312 137.384 129.504 137.512C129.696 137.64 129.947 137.741 130.256 137.816C130.565 137.891 130.907 137.955 131.28 138.008C131.664 138.051 132.043 138.12 132.416 138.216C132.789 138.312 133.131 138.445 133.44 138.616C133.76 138.776 134.016 139.005 134.208 139.304C134.4 139.603 134.496 139.992 134.496 140.472C134.496 141.005 134.336 141.469 134.016 141.864C133.707 142.259 133.264 142.568 132.688 142.792C132.112 143.005 131.424 143.112 130.624 143.112ZM138.858 143.112C138.144 143.112 137.456 143.021 136.794 142.84C136.144 142.648 135.626 142.419 135.242 142.152L136.01 140.632C136.394 140.877 136.853 141.08 137.386 141.24C137.92 141.4 138.453 141.48 138.986 141.48C139.616 141.48 140.069 141.395 140.346 141.224C140.634 141.053 140.778 140.824 140.778 140.536C140.778 140.301 140.682 140.125 140.49 140.008C140.298 139.88 140.048 139.784 139.738 139.72C139.429 139.656 139.082 139.597 138.698 139.544C138.325 139.491 137.946 139.421 137.562 139.336C137.189 139.24 136.848 139.107 136.538 138.936C136.229 138.755 135.978 138.515 135.786 138.216C135.594 137.917 135.498 137.523 135.498 137.032C135.498 136.488 135.653 136.019 135.962 135.624C136.272 135.219 136.704 134.909 137.258 134.696C137.824 134.472 138.49 134.36 139.258 134.36C139.834 134.36 140.416 134.424 141.002 134.552C141.589 134.68 142.074 134.861 142.458 135.096L141.69 136.616C141.285 136.371 140.874 136.205 140.458 136.12C140.053 136.024 139.648 135.976 139.242 135.976C138.634 135.976 138.181 136.067 137.882 136.248C137.594 136.429 137.45 136.659 137.45 136.936C137.45 137.192 137.546 137.384 137.738 137.512C137.93 137.64 138.181 137.741 138.49 137.816C138.8 137.891 139.141 137.955 139.514 138.008C139.898 138.051 140.277 138.12 140.65 138.216C141.024 138.312 141.365 138.445 141.674 138.616C141.994 138.776 142.25 139.005 142.442 139.304C142.634 139.603 142.73 139.992 142.73 140.472C142.73 141.005 142.57 141.469 142.25 141.864C141.941 142.259 141.498 142.568 140.922 142.792C140.346 143.005 139.658 143.112 138.858 143.112ZM144.453 143V134.456H146.453V143H144.453ZM145.461 133.048C145.087 133.048 144.778 132.931 144.533 132.696C144.298 132.461 144.181 132.179 144.181 131.848C144.181 131.507 144.298 131.224 144.533 131C144.778 130.765 145.087 130.648 145.461 130.648C145.834 130.648 146.138 130.76 146.373 130.984C146.618 131.197 146.741 131.469 146.741 131.8C146.741 132.152 146.623 132.451 146.389 132.696C146.154 132.931 145.845 133.048 145.461 133.048ZM152.918 143.112C152.043 143.112 151.264 142.925 150.582 142.552C149.899 142.168 149.36 141.645 148.966 140.984C148.571 140.323 148.374 139.571 148.374 138.728C148.374 137.875 148.571 137.123 148.966 136.472C149.36 135.811 149.899 135.293 150.582 134.92C151.264 134.547 152.043 134.36 152.918 134.36C153.803 134.36 154.587 134.547 155.27 134.92C155.963 135.293 156.502 135.805 156.886 136.456C157.28 137.107 157.478 137.864 157.478 138.728C157.478 139.571 157.28 140.323 156.886 140.984C156.502 141.645 155.963 142.168 155.27 142.552C154.587 142.925 153.803 143.112 152.918 143.112ZM152.918 141.4C153.408 141.4 153.846 141.293 154.23 141.08C154.614 140.867 154.912 140.557 155.126 140.152C155.35 139.747 155.462 139.272 155.462 138.728C155.462 138.173 155.35 137.699 155.126 137.304C154.912 136.899 154.614 136.589 154.23 136.376C153.846 136.163 153.414 136.056 152.934 136.056C152.443 136.056 152.006 136.163 151.622 136.376C151.248 136.589 150.95 136.899 150.726 137.304C150.502 137.699 150.39 138.173 150.39 138.728C150.39 139.272 150.502 139.747 150.726 140.152C150.95 140.557 151.248 140.867 151.622 141.08C152.006 141.293 152.438 141.4 152.918 141.4ZM164.238 134.36C164.921 134.36 165.529 134.493 166.062 134.76C166.606 135.027 167.033 135.437 167.342 135.992C167.651 136.536 167.806 137.24 167.806 138.104V143H165.806V138.36C165.806 137.603 165.625 137.037 165.262 136.664C164.91 136.291 164.414 136.104 163.774 136.104C163.305 136.104 162.889 136.2 162.526 136.392C162.163 136.584 161.881 136.872 161.678 137.256C161.486 137.629 161.39 138.104 161.39 138.68V143H159.39V134.456H161.294V136.76L160.958 136.056C161.257 135.512 161.689 135.096 162.254 134.808C162.83 134.509 163.491 134.36 164.238 134.36ZM175.607 143V141.272L175.495 140.904V137.88C175.495 137.293 175.319 136.84 174.967 136.52C174.615 136.189 174.082 136.024 173.367 136.024C172.887 136.024 172.413 136.099 171.943 136.248C171.485 136.397 171.095 136.605 170.775 136.872L169.991 135.416C170.45 135.064 170.994 134.803 171.623 134.632C172.263 134.451 172.925 134.36 173.607 134.36C174.845 134.36 175.799 134.659 176.471 135.256C177.154 135.843 177.495 136.755 177.495 137.992V143H175.607ZM172.919 143.112C172.279 143.112 171.719 143.005 171.239 142.792C170.759 142.568 170.386 142.264 170.119 141.88C169.863 141.485 169.735 141.043 169.735 140.552C169.735 140.072 169.847 139.64 170.071 139.256C170.306 138.872 170.685 138.568 171.207 138.344C171.73 138.12 172.423 138.008 173.287 138.008H175.767V139.336H173.431C172.749 139.336 172.29 139.448 172.055 139.672C171.821 139.885 171.703 140.152 171.703 140.472C171.703 140.835 171.847 141.123 172.135 141.336C172.423 141.549 172.823 141.656 173.335 141.656C173.826 141.656 174.263 141.544 174.647 141.32C175.042 141.096 175.325 140.765 175.495 140.328L175.831 141.528C175.639 142.029 175.293 142.419 174.791 142.696C174.301 142.973 173.677 143.112 172.919 143.112ZM180.062 143V131.128H182.062V143H180.062ZM187.327 143.112C186.612 143.112 185.924 143.021 185.263 142.84C184.612 142.648 184.095 142.419 183.711 142.152L184.479 140.632C184.863 140.877 185.322 141.08 185.855 141.24C186.388 141.4 186.922 141.48 187.455 141.48C188.084 141.48 188.538 141.395 188.815 141.224C189.103 141.053 189.247 140.824 189.247 140.536C189.247 140.301 189.151 140.125 188.959 140.008C188.767 139.88 188.516 139.784 188.207 139.72C187.898 139.656 187.551 139.597 187.167 139.544C186.794 139.491 186.415 139.421 186.031 139.336C185.658 139.24 185.316 139.107 185.007 138.936C184.698 138.755 184.447 138.515 184.255 138.216C184.063 137.917 183.967 137.523 183.967 137.032C183.967 136.488 184.122 136.019 184.431 135.624C184.74 135.219 185.172 134.909 185.727 134.696C186.292 134.472 186.959 134.36 187.727 134.36C188.303 134.36 188.884 134.424 189.471 134.552C190.058 134.68 190.543 134.861 190.927 135.096L190.159 136.616C189.754 136.371 189.343 136.205 188.927 136.12C188.522 136.024 188.116 135.976 187.711 135.976C187.103 135.976 186.65 136.067 186.351 136.248C186.063 136.429 185.919 136.659 185.919 136.936C185.919 137.192 186.015 137.384 186.207 137.512C186.399 137.64 186.65 137.741 186.959 137.816C187.268 137.891 187.61 137.955 187.983 138.008C188.367 138.051 188.746 138.12 189.119 138.216C189.492 138.312 189.834 138.445 190.143 138.616C190.463 138.776 190.719 139.005 190.911 139.304C191.103 139.603 191.199 139.992 191.199 140.472C191.199 141.005 191.039 141.469 190.719 141.864C190.41 142.259 189.967 142.568 189.391 142.792C188.815 143.005 188.127 143.112 187.327 143.112Z" fill="#010A16"/>
<path d="M114.701 81.8822L111.671 83.1192L112.636 79.9647L107.947 82.377L111.778 76.8927L105.907 80.1503L94.9081 80.6658L104.59 77.0577L107.435 74.1712L102.265 74.2949L107.235 72.3568H97.2559L110.401 66.0891H101.925L113.546 58.811L101.183 62.0893L108.537 57.8008L99.1795 60.6667L102.105 57.5535L93.3886 61.6357L98.878 57.3266L83.7897 62.7284L91.2819 58.2956L72.4867 59.1203L81.6864 57.3266L74.5731 52.1515L81.3057 53.0793L79.0214 50.131H91.2819L84.8323 48.5022H99.2995L90.1623 46.8941L101.664 46.7704L104.209 46.6054L99.1392 45.0178L113.085 44.2962L107.495 43.224L114.186 38.415L114.189 38.3973L108.577 37.7397L100.902 41.2035L104.549 38.3995L93.4886 43.0179L98.7184 39.1005L84.4516 45.492L89.9219 41.2035L80.8048 41.3891L84.2713 39.6778H70.4453L77.0317 37.7397L72.4685 33.8594L78.4687 34.8192L77.0317 33.133L83.5865 33.5222L79.0214 29.5273L86.385 32.1213H89.4355L85.8807 28.749L94.4777 29.8385L92.5869 27.2963L100.15 30.487L96.9988 26.57L109.554 27.2963L114.207 23.2495V38.2997V38.3995L114.186 38.415L113.085 44.2962L113.546 58.811L110.401 66.0891L107.235 72.3568L107.435 74.1712L111.778 76.8927L112.636 79.9647L114.701 81.8822Z" fill="#010A16"/>
<path d="M112.636 79.9647L111.671 83.1192L114.701 81.8822L112.636 79.9647ZM112.636 79.9647L107.947 82.377L111.778 76.8927M112.636 79.9647L111.778 76.8927M111.778 76.8927L105.907 80.1503L94.9081 80.6658L104.59 77.0577L107.435 74.1712M111.778 76.8927L107.435 74.1712M107.435 74.1712L102.265 74.2949L107.235 72.3568M107.435 74.1712L107.235 72.3568M107.235 72.3568H97.2559L110.401 66.0891M107.235 72.3568L110.401 66.0891M110.401 66.0891H101.925L113.546 58.811M110.401 66.0891L113.546 58.811M113.546 58.811L101.183 62.0893L108.537 57.8008L99.1795 60.6667L102.105 57.5535L93.3886 61.6357L98.878 57.3266L83.7897 62.7284L91.2819 58.2956L72.4867 59.1203L81.6864 57.3266L74.5731 52.1515L81.3057 53.0793L79.0214 50.131H91.2819L84.8323 48.5022H99.2995L90.1623 46.8941L101.664 46.7704L104.209 46.6054L99.1392 45.0178L113.085 44.2962M113.546 58.811L113.085 44.2962M113.085 44.2962L107.495 43.224L114.207 38.3995M113.085 44.2962L114.207 38.2997M114.207 38.3995L108.577 37.7397L100.902 41.2035L104.549 38.3995L93.4886 43.0179L98.7184 39.1005L84.4516 45.492L89.9219 41.2035L80.8048 41.3891L84.2713 39.6778H70.4453L77.0317 37.7397L72.4685 33.8594L78.4687 34.8192L77.0317 33.133L83.5865 33.5222L79.0214 29.5273L86.385 32.1213H89.4355L85.8807 28.749L94.4777 29.8385L92.5869 27.2963L100.15 30.487L96.9988 26.57L109.554 27.2963L114.207 23.2495V38.2997M114.207 38.3995V38.2997" stroke="#010A16"/>
<path d="M114.698 81.8822L117.221 83.1192L116.418 79.9647L120.323 82.377L117.132 76.8927L122.022 80.1503L131.182 80.6658L123.118 77.0577L120.749 74.1712L125.054 74.2949L120.916 72.3568H129.226L118.279 66.0891H125.338L115.659 58.811L125.955 62.0893L119.831 57.8008L127.624 60.6667L125.188 57.5535L132.447 61.6357L127.875 57.3266L140.441 62.7284L134.201 58.2956L149.855 59.1203L142.193 57.3266L148.117 52.1515L142.51 53.0793L144.412 50.131H134.201L139.573 48.5022H127.524L135.134 46.8941L125.555 46.7704L123.436 46.6054L127.658 45.0178L116.043 44.2962L120.699 43.224L115.127 38.415L115.124 38.3973L119.798 37.7397L126.189 41.2035L123.152 38.3995L132.364 43.0179L128.008 39.1005L139.89 45.492L135.334 41.2035L142.927 41.3891L140.04 39.6778H151.555L146.069 37.7397L149.87 33.8594L144.873 34.8192L146.069 33.133L140.61 33.5222L144.412 29.5273L138.28 32.1213H135.739L138.7 28.749L131.54 29.8385L133.115 27.2963L126.816 30.487L129.44 26.57L118.984 27.2963L115.109 23.2495V38.2997V38.3995L115.127 38.415L116.043 44.2962L115.659 58.811L118.279 66.0891L120.916 72.3568L120.749 74.1712L117.132 76.8927L116.418 79.9647L114.698 81.8822Z" fill="#010A16"/>
<path d="M116.418 79.9647L117.221 83.1192L114.698 81.8822L116.418 79.9647ZM116.418 79.9647L120.323 82.377L117.132 76.8927M116.418 79.9647L117.132 76.8927M117.132 76.8927L122.022 80.1503L131.182 80.6658L123.118 77.0577L120.749 74.1712M117.132 76.8927L120.749 74.1712M120.749 74.1712L125.054 74.2949L120.916 72.3568M120.749 74.1712L120.916 72.3568M120.916 72.3568H129.226L118.279 66.0891M120.916 72.3568L118.279 66.0891M118.279 66.0891H125.338L115.659 58.811M118.279 66.0891L115.659 58.811M115.659 58.811L125.955 62.0893L119.831 57.8008L127.624 60.6667L125.188 57.5535L132.447 61.6357L127.875 57.3266L140.441 62.7284L134.201 58.2956L149.855 59.1203L142.193 57.3266L148.117 52.1515L142.51 53.0793L144.412 50.131H134.201L139.573 48.5022H127.524L135.134 46.8941L125.555 46.7704L123.436 46.6054L127.658 45.0178L116.043 44.2962M115.659 58.811L116.043 44.2962M116.043 44.2962L120.699 43.224L115.109 38.3995M116.043 44.2962L115.109 38.2997M115.109 38.3995L119.798 37.7397L126.189 41.2035L123.152 38.3995L132.364 43.0179L128.008 39.1005L139.89 45.492L135.334 41.2035L142.927 41.3891L140.04 39.6778H151.555L146.069 37.7397L149.87 33.8594L144.873 34.8192L146.069 33.133L140.61 33.5222L144.412 29.5273L138.28 32.1213H135.739L138.7 28.749L131.54 29.8385L133.115 27.2963L126.816 30.487L129.44 26.57L118.984 27.2963L115.109 23.2495V38.2997M115.109 38.3995V38.2997" stroke="#010A16"/>
<path d="M111.502 87.8179V36.9868L118.32 37.2943V87.408V89.0477L119.14 90.1237H123.957L124.264 90.8924L131.284 91.7635H118.32V92.6345H113.657L110.07 94.8379H106.586L109.507 91.7635L94.7969 92.1221L101.559 91.1998V90.1237L108.783 89.6626L111.502 87.8179Z" fill="#010A16" stroke="#010A16"/>
<rect x="108.898" y="64.6318" width="12.4219" height="13.3064" fill="#010A16"/>
<rect x="107.258" y="69.2628" width="3.28125" height="5.89575" fill="#010A16"/>
<rect x="119.141" y="69.9443" width="3.28125" height="5.89575" fill="#010A16"/>
<path d="M114.233 24.7094L111.115 25.9465L112.108 22.792L107.283 25.2043L111.225 19.72L105.184 22.9776L93.8672 23.493L103.829 19.8849L106.757 16.9984L101.437 17.1222L106.551 15.1841H96.2829L109.808 8.91632H101.087L113.045 1.63831L109.808 8.91632L106.551 15.1841L106.757 16.9984L111.225 19.72L112.108 22.792L114.233 24.7094Z" fill="#010A16"/>
<path d="M112.108 22.792L111.115 25.9465L114.233 24.7094L112.108 22.792ZM112.108 22.792L107.283 25.2043L111.225 19.72M112.108 22.792L111.225 19.72M111.225 19.72L105.184 22.9776L93.8672 23.493L103.829 19.8849L106.757 16.9984M111.225 19.72L106.757 16.9984M106.757 16.9984L101.437 17.1222L106.551 15.1841M106.757 16.9984L106.551 15.1841M106.551 15.1841H96.2829L109.808 8.91632M106.551 15.1841L109.808 8.91632M109.808 8.91632H101.087L113.045 1.63831L109.808 8.91632Z" stroke="#010A16"/>
<path d="M113.931 24.7094L117.049 25.9465L116.056 22.792L120.881 25.2043L116.939 19.72L122.98 22.9776L134.297 23.493L124.335 19.8849L121.407 16.9984L126.727 17.1222L121.614 15.1841H131.881L118.356 8.91632H127.077L115.119 1.63831L118.356 8.91632L121.614 15.1841L121.407 16.9984L116.939 19.72L116.056 22.792L113.931 24.7094Z" fill="#010A16"/>
<path d="M116.056 22.792L117.049 25.9465L113.931 24.7094L116.056 22.792ZM116.056 22.792L120.881 25.2043L116.939 19.72M116.056 22.792L116.939 19.72M116.939 19.72L122.98 22.9776L134.297 23.493L124.335 19.8849L121.407 16.9984M116.939 19.72L121.407 16.9984M121.407 16.9984L126.727 17.1222L121.614 15.1841M121.407 16.9984L121.614 15.1841M121.614 15.1841H131.881L118.356 8.91632M121.614 15.1841L118.356 8.91632M118.356 8.91632H127.077L115.119 1.63831L118.356 8.91632Z" stroke="#010A16"/>
<path d="M122.117 16.3386L114.102 24.4591L112.215 23.048L111.443 19.8531L107.103 17.7497L106.464 15.5665L114.102 0.576782L122.117 16.3386Z" fill="#010A16"/>
</svg>
