<svg width="150" height="132" viewBox="0 0 150 132" fill="none" xmlns="http://www.w3.org/2000/svg">
<path d="M118.522 14.9714C113 7.71788 90.1558 -5.94235 63.8984 11.2453C75.2648 9.96094 107.054 19.7455 91.4298 37.707C90.7432 38.4963 90.688 39.6904 91.3767 40.4779L101.579 52.1445C101.99 52.6136 102.595 52.8646 103.217 52.8236L114.005 52.1109C115.216 52.1109 116.887 53.9254 114.457 60.9891C114.196 61.7479 114.381 62.5981 114.96 63.1533L124.795 72.5767C125.602 73.3494 126.885 73.3119 127.645 72.4933L146.251 52.4509C146.964 51.6827 146.963 50.4941 146.248 49.7271L140.985 44.0759C140.606 43.6697 140.076 43.439 139.521 43.439H130.842C127.083 43.0492 125.657 39.6647 126.801 26.0712C126.845 25.5528 126.688 25.0296 126.36 24.6257L118.522 14.9714Z" stroke="#010A16" stroke-width="5"/>
<path d="M28.1367 112.064L89.2365 41.2601C90.029 40.3418 91.4499 40.3346 92.2516 41.245L101.184 51.3881C101.843 52.1365 101.85 53.2559 101.201 54.0126L37.4301 128.308C37.0275 128.777 36.4088 129.001 35.7993 128.898V128.898C30.0703 127.937 25.6386 123.351 24.8731 117.593L24.7835 116.919C24.7125 116.385 24.8733 115.845 25.2255 115.437L28.1367 112.064ZM28.1367 112.064L33.4744 117.981" stroke="#010A16" stroke-width="5"/>
<path d="M34.5391 104.955L39.9892 110.828" stroke="#010A16" stroke-width="5"/>
<path d="M31.4782 14.9715C36.9999 7.71803 59.8442 -5.9422 86.1016 11.2454C74.7352 9.96109 42.946 19.7457 58.5702 37.7072C59.2568 38.4965 59.312 39.6906 58.6233 40.4781L48.4206 52.1447C48.0104 52.6137 47.405 52.8648 46.7833 52.8237L35.9953 52.1111C34.7835 52.1111 33.113 53.9255 35.5432 60.9892C35.8043 61.7481 35.619 62.5982 35.0396 63.1534L25.2049 72.5768C24.3984 73.3496 23.1154 73.312 22.3554 72.4935L3.74932 52.4511C3.03613 51.6828 3.03712 50.4943 3.75157 49.7272L9.01523 44.076C9.39355 43.6698 9.92366 43.4391 10.4787 43.4391H19.1583C22.9175 43.0494 24.3434 39.6649 23.1991 26.0714C23.1555 25.5529 23.3119 25.0297 23.6398 24.6258L31.4782 14.9715Z" fill="#AFBAC6" stroke="#010A16" stroke-width="5"/>
<path d="M48.7993 54.0127L112.57 128.308C112.972 128.777 113.591 129.001 114.201 128.899C119.93 127.937 124.361 123.351 125.127 117.593L125.216 116.919C125.287 116.385 125.127 115.846 124.775 115.438L121.863 112.064L60.7635 41.2603C59.971 40.3419 58.55 40.3348 57.7484 41.2451L48.8159 51.3883C48.1569 52.1366 48.1498 53.2561 48.7993 54.0127Z" fill="#AFBAC6"/>
<path d="M121.863 112.064L60.7635 41.2603C59.971 40.3419 58.5501 40.3348 57.7484 41.2451L48.8159 51.3883C48.1569 52.1366 48.1498 53.2561 48.7993 54.0127L112.57 128.308C112.972 128.777 113.591 129.001 114.201 128.899V128.899C119.93 127.937 124.361 123.351 125.127 117.593L125.216 116.919C125.287 116.385 125.127 115.846 124.775 115.438L121.863 112.064ZM121.863 112.064L116.526 117.981" stroke="#010A16" stroke-width="5"/>
<path d="M115.461 104.955L110.011 110.828" stroke="#010A16" stroke-width="5"/>
</svg>
