<svg width="150" height="132" viewBox="0 0 150 132" fill="none" xmlns="http://www.w3.org/2000/svg">
<path d="M147.5 31.1993V86.2572C147.5 88.0787 145.213 88.9527 143.901 87.6889C122.238 66.8185 113.849 83.9686 107.225 88.8652C106.509 89.3945 105.544 89.1919 104.936 88.5418C94.3106 77.1868 85.6776 76.6212 78.8158 79.1271C73.0433 81.2351 68.5243 85.5168 65.1271 87.3771C64.4441 87.751 63.6023 87.5626 63.0277 87.0372C44.0554 69.6906 32.5327 83.0961 25.438 87.2488C24.6783 87.6934 23.742 87.4565 23.1253 86.8284C17.7109 81.3143 9.4634 79.363 4.4969 78.9472C3.39618 78.855 2.5 77.9614 2.5 76.8568V31.1993C2.5 30.0947 3.39543 29.1993 4.5 29.1993H78.8158H145.5C146.605 29.1993 147.5 30.0947 147.5 31.1993Z" fill="#AFBAC6"/>
<path d="M147.5 108.651C123.143 82.2175 114.204 100.978 107.225 106.137C106.509 106.667 105.527 106.445 104.918 105.795C85.3593 84.9108 72.554 100.587 65.1216 104.652C64.4385 105.026 63.6023 104.835 63.0277 104.309C44.0554 86.9628 32.5327 100.368 25.438 104.521C24.6783 104.966 23.742 104.729 23.1253 104.101C16.8968 97.7575 6.9193 96.129 2.5 96.129M147.5 129.378C123.143 102.944 114.204 121.705 107.225 126.864C106.509 127.393 105.527 127.172 104.918 126.522C85.3593 105.637 72.554 121.313 65.1216 125.379C64.4385 125.753 63.6023 125.561 63.0277 125.036C44.0554 107.689 32.5327 121.095 25.438 125.248C24.6783 125.692 23.742 125.455 23.1253 124.827C16.8968 118.484 6.9193 116.856 2.5 116.856M78.8158 29.1993H4.5C3.39543 29.1993 2.5 30.0947 2.5 31.1993V76.8568C2.5 77.9614 3.39618 78.855 4.4969 78.9472C9.4634 79.363 17.7109 81.3143 23.1253 86.8284C23.742 87.4565 24.6783 87.6934 25.438 87.2488C32.5327 83.0961 44.0554 69.6906 63.0277 87.0372C63.6023 87.5626 64.4441 87.751 65.1271 87.3771C68.5243 85.5168 73.0433 81.2351 78.8158 79.1271M78.8158 29.1993H145.5C146.605 29.1993 147.5 30.0947 147.5 31.1993V86.2572C147.5 88.0787 145.213 88.9527 143.901 87.6889C122.238 66.8185 113.849 83.9686 107.225 88.8652C106.509 89.3945 105.544 89.1919 104.936 88.5418C94.3106 77.1868 85.6776 76.6212 78.8158 79.1271M78.8158 29.1993V79.1271" stroke="#010A16" stroke-width="5"/>
<path d="M79.2344 70.6526H122.48" stroke="#010A16" stroke-width="5"/>
<path d="M79.2344 52.085H122.904" stroke="#010A16" stroke-width="5"/>
<path d="M122.914 32.6538V79" stroke="#010A16" stroke-width="5"/>
<path d="M101.707 16.2454C101.707 -1.02713 78.8125 -1.02707 78.8125 16.2454V36.1081" stroke="#010A16" stroke-width="5"/>
<path d="M145.809 16.2454C145.809 -1.02713 122.914 -1.02707 122.914 16.2454V36.1081" stroke="#010A16" stroke-width="5"/>
</svg>
