<svg width="129" height="130" viewBox="0 0 129 130" fill="none" xmlns="http://www.w3.org/2000/svg">
<path d="M111.562 42.6097V4C111.562 2.89543 112.458 2 113.563 2H129.002" stroke="#010A16" stroke-width="4"/>
<path d="M2 53.2767V83.4169C2 92.8266 8.82826 94.934 12.2424 94.8114H47.0906C48.5522 94.8114 50.0107 93.1388 50.3943 91.7284C51.3339 88.2737 54.3823 83.4169 60.467 83.4169" stroke="#010A16" stroke-width="4"/>
<path d="M2 53.6492C2 44.2395 8.82826 42.1322 12.2424 42.2547" stroke="#010A16" stroke-width="4"/>
<path d="M118.93 53.6492C118.93 44.2395 112.101 42.1322 108.687 42.2547" stroke="#010A16" stroke-width="4"/>
<path d="M118.93 53.2767V83.4169C118.93 92.8266 112.101 94.934 108.687 94.8114H73.8391C72.3775 94.8114 70.919 93.1388 70.5354 91.7284C69.5957 88.2737 66.5474 83.4169 60.4627 83.4169" stroke="#010A16" stroke-width="4"/>
<path d="M11.8438 42.2498H108.778" stroke="#010A16" stroke-width="4"/>
<rect x="11.0625" y="54.505" width="32.6648" height="31.4064" fill="#AFBAC6"/>
<rect x="77.875" y="53.6492" width="30.8138" height="31.4064" fill="#AFBAC6"/>
<rect x="39.9609" y="54.505" width="38.5922" height="22.4667" fill="#AFBAC6"/>
<path d="M10.4844 59.0987V78.5534C10.4844 84.6271 16.3218 85.9873 19.2405 85.9082H43.7262" stroke="#010A16" stroke-width="4"/>
<path d="M110.453 59.0987V78.5534C110.453 84.6271 104.616 85.9873 101.697 85.9082H77.2113" stroke="#010A16" stroke-width="4"/>
<path d="M10.4844 59.3392C10.4844 53.2655 16.3218 51.9053 19.2405 51.9843" stroke="#010A16" stroke-width="4"/>
<path d="M110.453 59.3392C110.453 53.2655 104.616 51.9053 101.697 51.9843" stroke="#010A16" stroke-width="4"/>
<path d="M18.9141 51.9811H101.782" stroke="#010A16" stroke-width="4"/>
<path d="M126.284 2V103.743C126.284 118.186 115.429 121.528 110.001 121.394H75.6719C79.3738 116.541 77.2144 110.409 75.6719 107.95H99.1247C107.826 107.95 108.963 105.145 108.444 103.743V93.344" stroke="#010A16" stroke-width="4"/>
<path d="M75.8773 113.932C75.8773 121.554 69.1329 128 60.4699 128C51.8069 128 45.0625 121.554 45.0625 113.932C45.0625 106.31 51.8069 99.8635 60.4699 99.8635C69.1329 99.8635 75.8773 106.31 75.8773 113.932Z" stroke="#010A16" stroke-width="4"/>
<path d="M67.8676 113.932C67.8676 115.141 67.1693 116.337 65.834 117.272C64.5017 118.205 62.608 118.814 60.4689 118.814C58.3299 118.814 56.4362 118.205 55.1039 117.272C53.7685 116.337 53.0703 115.141 53.0703 113.932C53.0703 112.723 53.7685 111.527 55.1039 110.591C56.4362 109.658 58.3299 109.049 60.4689 109.049C62.608 109.049 64.5017 109.658 65.834 110.591C67.1693 111.527 67.8676 112.723 67.8676 113.932Z" stroke="#010A16" stroke-width="2"/>
<path d="M34.8672 41.0478C34.8672 34.9117 38.1592 33.2847 39.8067 33.2382H80.4578C84.3555 33.2382 85.4692 38.4446 85.5388 41.0478" stroke="#010A16" stroke-width="4"/>
<path d="M111.562 12.9334H127.173" stroke="#010A16" stroke-width="4"/>
<path d="M111.562 25.4287H127.173" stroke="#010A16" stroke-width="4"/>
<path d="M18.4922 68.6887C18.4922 62.5101 18.4922 61.6988 25.3036 61.6988" stroke="#010A16" stroke-width="4"/>
<path d="M101.906 68.6887C101.906 62.5101 101.906 61.6988 95.0949 61.6988" stroke="#010A16" stroke-width="4"/>
<path d="M41.2031 88.9936C41.547 77.9875 50.2221 74.5229 60.4618 74.5233" stroke="#010A16" stroke-width="4"/>
<path d="M79.7266 88.9936C79.3827 77.9875 70.7076 74.5229 60.4679 74.5233" stroke="#010A16" stroke-width="4"/>
</svg>
