<svg width="2500" height="48" viewBox="0 0 2500 48" fill="none" xmlns="http://www.w3.org/2000/svg">
<rect y="32" width="2500" height="16" fill="#FFFBF8"/>
<path fill-rule="evenodd" clip-rule="evenodd" d="M0 0H16.3144C12.1307 0 10.8828 5.41054 14.7005 7.12168C55.3184 25.3271 96.6755 31.9958 134.77 32H0V0ZM690.651 31.9997C690.812 31.9995 690.974 31.9992 691.135 31.9987C691.429 31.9995 691.722 32 692.016 32H690.254L690.651 31.9997ZM692.087 32H969.727C927.61 31.996 881.505 23.8457 836.82 0.964874C835.656 0.368894 834.307 0.341017 833.14 0.931531C805.228 15.0585 752.807 31.9934 692.087 32ZM969.789 32H1246.02C1207.92 31.9958 1166.57 25.3271 1125.95 7.12168C1125.17 6.77368 1124.61 6.27267 1124.23 5.69529C1120.99 4.1937 1117.75 2.61772 1114.53 0.964874C1113.36 0.368894 1112.01 0.341017 1110.85 0.931531C1082.93 15.0589 1030.51 31.9942 969.789 32ZM1247.43 32H1246.09L1246.6 31.9995L1246.76 31.9992C1246.98 31.9997 1247.21 32 1247.43 32ZM1375.6 6.90762C1376.37 6.58029 1376.94 6.10534 1377.32 5.55537C1380.86 3.99801 1384.15 2.44858 1387.14 0.931531C1388.31 0.341017 1389.66 0.368894 1390.82 0.964874C1435.51 23.8457 1481.61 31.996 1523.73 32H1247.5C1299.81 31.9943 1345.97 19.4229 1375.6 6.90762ZM1801.43 32H1523.79C1584.51 31.9942 1636.94 15.0589 1664.85 0.931531C1666.02 0.341017 1667.36 0.368894 1668.53 0.964874C1713.21 23.8449 1759.32 31.9954 1801.43 32ZM2079.36 32H1801.72C1862.44 31.9934 1914.86 15.0585 1942.78 0.931531C1943.94 0.341017 1945.29 0.368894 1946.45 0.964874C1991.14 23.8457 2037.25 31.996 2079.36 32ZM2079.42 32H2357.06C2314.95 31.9954 2268.85 23.8449 2224.16 0.964874C2223 0.368894 2221.65 0.341017 2220.48 0.931531C2192.57 15.0589 2140.15 31.9942 2079.42 32ZM2357.14 32H2500V0H2483.69C2487.87 0 2489.08 5.27961 2485.23 6.90762C2455.6 19.4229 2409.45 31.9943 2357.14 32ZM1801.65 32C1801.63 32 1801.6 32 1801.58 32C1801.55 32 1801.53 32 1801.5 32H1801.65ZM557.28 0.964874C601.964 23.8449 648.068 31.9954 690.184 32H412.543C473.265 31.9942 525.688 15.0589 553.601 0.931531C554.767 0.341017 556.116 0.368894 557.28 0.964874ZM279.574 0.964874C324.259 23.8457 370.364 31.996 412.481 32H134.841C195.561 31.9934 247.982 15.0585 275.894 0.931531C277.06 0.341017 278.41 0.368894 279.574 0.964874Z" fill="#FFFBF8"/>
</svg>
