<svg width="2501" height="144" viewBox="0 0 2501 144" fill="none" xmlns="http://www.w3.org/2000/svg">
<path fill-rule="evenodd" clip-rule="evenodd" d="M0 0H2500.38V48H2357.57C2413.16 47.9729 2461.78 26.6775 2491.01 6.82235C2494.16 4.68551 2492.59 2.67029e-05 2488.79 2.67029e-05H1933.06H1678.74H1378.98H1123.02H821.645H568.939H11.6029C7.8002 2.67029e-05 6.21543 4.74992 9.31386 6.95461C51.6338 37.0675 94.9519 47.9803 134.718 48H0V0ZM1801.85 48C1801.85 48 1801.85 48 1801.84 48H1801.86C1801.86 48 1801.85 48 1801.85 48ZM1802.07 48H2079.61C2037.71 47.9789 1991.86 35.8641 1947.4 1.93845C1945.94 0.823167 1943.91 0.771012 1942.44 1.8755C1914.38 22.9596 1862.32 47.9702 1802.07 48ZM2079.83 48H2357.36C2315.46 47.9796 2269.61 35.865 2225.15 1.93845C2223.69 0.823167 2221.66 0.771012 2220.19 1.8755C2192.13 22.9594 2140.07 47.9697 2079.83 48ZM1381.21 6.82235C1382.02 6.26771 1382.52 5.54136 1382.75 4.76981C1384.12 3.79875 1385.44 2.83308 1386.72 1.8755C1388.19 0.771012 1390.21 0.823167 1391.67 1.93845C1436.14 35.8641 1481.98 47.9789 1523.88 48H1247.77C1303.35 47.9729 1351.98 26.6775 1381.21 6.82235ZM1669.42 1.93845C1713.89 35.865 1759.73 47.9796 1801.63 48H1524.1C1584.34 47.9697 1636.41 22.9594 1664.47 1.8755C1665.94 0.771012 1667.96 0.823167 1669.42 1.93845ZM1115.34 1.93845C1116.63 2.92217 1117.92 3.88755 1119.21 4.83484C1119.43 5.62845 1119.92 6.37844 1120.73 6.95461C1163.05 37.0675 1206.37 47.9803 1246.13 48H970.021C1030.26 47.9697 1082.33 22.9594 1110.39 1.8755C1111.86 0.771012 1113.88 0.823167 1115.34 1.93845ZM692.27 48H969.802C927.901 47.9789 882.058 35.8641 837.594 1.93845C836.132 0.823167 834.109 0.771012 832.639 1.8755C804.579 22.9596 752.512 47.9702 692.27 48ZM1246.95 47.9989C1247.15 47.9995 1247.35 47.9999 1247.55 48H1246.35C1246.55 47.9999 1246.75 47.9995 1246.95 47.9989ZM691.244 47.9981C690.973 47.9992 690.702 47.9999 690.431 48H692.054C691.784 47.9999 691.514 47.9992 691.244 47.9981ZM558.007 1.93845C602.472 35.865 648.317 47.9796 690.218 48H412.685C472.926 47.9697 524.993 22.9594 553.052 1.8755C554.522 0.771012 556.545 0.823167 558.007 1.93845ZM280.258 1.93845C324.722 35.8641 370.565 47.9789 412.466 48H134.934C195.176 47.9702 247.243 22.9596 275.303 1.8755C276.773 0.771012 278.796 0.823167 280.258 1.93845Z" fill="#AFBAC6"/>
<rect y="47.9999" width="2500.38" height="96" fill="#AFBAC6"/>
</svg>
